<svg width="100" height="102" viewBox="0 0 100 102" fill="none" xmlns="http://www.w3.org/2000/svg">
<path fill-rule="evenodd" clip-rule="evenodd" d="M18.7046 80.324C16.8438 80.5018 14.5042 80.3367 12.7313 80.0578C11.329 79.8371 8.34461 79.4623 8.49966 77.7355C8.6642 75.9067 13.7315 71.0161 14.9115 70.5721C15.5636 71.8321 16.5808 76.721 18.7046 80.324ZM72.2782 88.6117C70.9301 90.6316 64.6047 93.6082 62.2952 94.3473C53.5339 97.1503 44.4535 96.5897 36.3765 92.0743C34.5634 91.0609 33.3387 90.0873 31.6683 88.8359C30.6868 88.1003 28.1241 85.729 27.7361 84.8461L38.3078 82.6925C40.098 82.1452 42.2328 81.7252 43.854 81.2323C45.7613 80.6528 47.573 80.107 49.4736 79.503C51.1419 78.9732 53.0153 78.3087 54.7388 77.6855C60.0301 75.7711 65.4659 73.6877 70.3109 71.4423C73.7722 69.8378 76.9399 68.022 80.249 66.5421C80.6322 66.0927 82.3443 65.2155 82.9133 65.1808C83.2706 64.685 83.0209 64.8358 83.7113 64.6253C83.745 64.6742 83.7812 64.6939 83.7909 64.7843C83.8012 64.875 83.8509 64.9032 83.8631 64.9476C84.1565 66.0225 83.8718 67.618 83.6983 68.7269C83.1096 72.487 82.1368 75.4148 80.3361 78.8081C78.9309 81.4566 74.4539 87.9205 72.2782 88.6117ZM92.3493 51.7652C91.5631 52.559 89.2707 54.1598 88.0522 54.9448C87.9329 55.0217 87.8168 55.0899 87.7057 55.1468C86.4218 47.7094 84.3183 45.8225 83.9261 44.2776C86.8269 44.1103 92.0373 43.9657 94.278 46.7713C95.157 48.3334 93.2149 50.891 92.3493 51.7652ZM83.1365 56.4752C83.4851 57.0992 83.38 57.213 83.4606 58.1389C82.0329 59.2472 79.9304 60.2767 78.0016 61.4298C72.3598 64.8021 60.492 69.8947 53.844 72.2772C50.1227 73.6108 35.9099 77.6017 33.3867 77.9716C32.4782 78.2257 29.6431 78.9076 28.7413 78.9811C27.5448 79.0788 25.7099 79.6593 24.056 79.5642C22.0141 78.7876 18.1448 63.9296 20.1338 59.5086C20.1805 56.8794 22.4034 50.2172 23.716 48.7391C24.0278 47.4027 24.1761 46.5036 23.3404 45.4556C22.6541 44.595 21.37 44.1797 20.1268 44.6739C18.5046 45.3181 17.6337 48.1443 16.8068 50.1104C14.5532 55.4679 14.5709 58.2257 14.0445 64.2444C13.1086 64.8684 12.7966 65.1804 11.8049 65.8777C10.7748 66.7197 9.26344 67.7853 8.3968 68.7796C6.93242 70.4598 2.28885 74.2445 2.92704 78.8863C3.40992 82.3964 6.1237 84.1038 9.40001 85.0503C13.8735 86.343 17.8507 85.4306 21.0469 85.6451C21.9842 87.0838 23.469 88.8566 24.5324 90.0738L26.5833 92.0896C27.227 92.6354 28.0574 93.2514 28.7583 93.7887C42.7005 104.475 62.3771 104.374 75.3205 93.5595L77.4962 91.6659C84.9382 84.9774 89.3558 74.9354 89.6902 64.6889C89.7326 63.3876 89.4824 62.0522 89.5763 60.8208C89.8597 60.0897 101.508 53.0182 99.8392 45.9116C98.4133 39.8401 88.9176 39.3179 83.7038 39.7031C82.3662 39.8019 82.0542 39.9099 81.1183 40.2219C80.1824 38.974 78.2915 37.0731 76.9816 35.7842C75.738 34.5605 73.7016 33.1048 72.1401 32.0818C70.2395 30.8369 68.3694 29.3887 66.3952 31.4963C65.6314 32.3115 65.5552 33.8354 66.1175 34.8414C66.5415 35.5999 67.7714 36.0319 68.6635 36.5767C72.2469 38.7645 75.171 41.6072 77.691 44.8507C79.8305 47.6042 82.2986 52.2901 83.1368 56.4759L83.1365 56.4752Z" fill="white"/>
<path fill-rule="evenodd" clip-rule="evenodd" d="M3.29341 32.6033C2.7124 33.0415 0.295489 35.3072 0.0877549 36.0627C-0.530205 38.3097 2.25873 38.1883 3.96805 38.5576C7.41789 39.3027 11.6844 40.2807 15.0926 40.7302C15.4484 40.3706 15.3405 40.4555 15.6599 40.0008C17.4825 37.4076 17.5772 37.5149 19.4078 35.2051L24.2956 30.5234C32.8489 23.9331 41.6279 20.398 53.2908 20.9923C62.5255 21.4627 66.4499 23.686 68.8856 24.8275C69.5696 24.31 71.917 21.5885 72.7646 20.762L78.7425 14.7271C79.2598 14.1698 79.3963 13.2475 79.2407 12.7667C78.8368 11.5187 77.6808 11.5187 74.0917 10.5273L36.2508 3.10378C32.8367 3.07682 32.8219 3.47956 30.7328 5.19967C29.219 6.44612 28.3214 7.58995 26.8228 9.02291C23.3538 12.3405 18.4837 17.6614 15.1176 20.7391C14.2811 21.5039 13.8936 21.9833 13.1855 22.6799C12.4629 23.3913 11.9915 23.8185 11.1431 24.6976L3.29341 32.6041V32.6033Z" fill="white"/>
<path fill-rule="evenodd" clip-rule="evenodd" d="M20.1256 59.5101L20.0547 60.7244C22.2314 60.1184 24.6029 60.3681 25.9978 61.9356C27.0647 63.1351 27.6827 65.9931 28.1264 67.7524C29.3361 72.5501 29.0657 72.3134 31.0514 76.6143C31.745 78.116 31.3974 78.4218 33.3512 78.0311C35.9676 78.1432 50.1145 73.6123 53.8358 72.2787C60.4838 69.8964 72.3516 64.8038 77.9934 61.4312C79.9222 60.2779 82.0247 59.2487 83.4524 58.1403C83.3718 57.2145 83.4769 57.1006 83.1283 56.4767C83.0037 57.0799 83.2899 56.6894 82.8886 56.9898C81.5244 56.4367 80.6562 55.4929 78.9262 55.0307C74.6744 53.8946 69.6039 56.6487 66.369 58.9553C59.6673 63.7339 51.3097 70.9636 42.479 64.1753C37.2717 60.1725 36.5254 54.7733 32.3575 51.4926C30.4512 49.992 27.2125 48.2729 23.7078 48.7403C22.3952 50.2184 20.1723 56.8806 20.1256 59.5099V59.5101Z" fill="white" fill-opacity="0.8"/>
<path fill-rule="evenodd" clip-rule="evenodd" d="M38.3061 82.6942L27.7344 84.8478C28.1226 85.7307 30.6851 88.102 31.6666 88.8375C33.337 90.0887 34.5616 91.0623 36.3748 92.076C44.4518 96.5914 53.5322 97.1519 62.2935 94.3489C64.603 93.6099 70.9284 90.6336 72.2765 88.6133C71.824 88.8348 71.9484 88.8223 71.448 88.8143C69.6049 83.5806 62.7746 79.5556 56.5673 81.5311C53.6325 82.4652 51.1884 83.9818 48.1133 84.7147C44.3501 85.6116 41.4978 84.0328 38.3725 83.3531L38.3064 82.6942H38.3061Z" fill="white"/>
<path fill-rule="evenodd" clip-rule="evenodd" d="M80.2458 66.5428C76.9368 68.0227 73.7694 69.8382 70.3078 71.443C65.4627 73.6884 60.0269 75.7718 54.7357 77.6862C53.0124 78.3094 51.139 78.9739 49.4704 79.5037C47.5698 80.1077 45.7582 80.6535 43.8509 81.2331C42.2297 81.7259 40.0947 82.1459 38.3047 82.6932L38.3709 83.3522C41.4961 84.0318 44.3485 85.6103 48.1117 84.7137C51.1867 83.9809 53.6309 82.4643 56.5656 81.5302C62.7729 79.5544 69.6032 83.5796 71.4463 88.8134C71.9467 88.8213 71.8224 88.8338 72.2748 88.6124C74.4505 87.9212 78.9275 81.457 80.3327 78.8088C82.1334 75.4155 83.1062 72.4877 83.6949 68.7276C83.8685 67.6188 84.1531 66.0232 83.8597 64.9483C83.8475 64.9039 83.7978 64.8757 83.7876 64.785C83.7776 64.6946 83.7416 64.6749 83.7079 64.626C83.0176 64.8365 83.2672 64.6857 82.9099 65.1815C82.3409 65.2162 80.6289 66.0932 80.2456 66.5428H80.2458Z" fill="white" fill-opacity="0.8"/>
<path fill-rule="evenodd" clip-rule="evenodd" d="M63.0902 31.2976C63.5421 30.4454 63.3713 29.1922 62.7846 28.3982C62.2445 27.6671 61.4655 27.3894 60.3796 27.1457C50.0845 24.8329 40.0573 26.8688 31.347 32.2841C29.7947 33.2489 24.3032 37.5316 23.6888 39.0859C22.8571 41.1893 24.4193 43.2797 26.4819 43.1333C27.6135 43.0534 28.194 42.2362 28.7296 41.6824C34.4175 35.7977 42.6395 32.0317 51.3297 31.8714C58.712 31.735 61.3923 34.4998 63.0902 31.2976Z" fill="white"/>
<path fill-rule="evenodd" clip-rule="evenodd" d="M33.3639 78.0297C31.4102 78.4205 31.7577 78.1144 31.0641 76.613C29.0781 72.3121 29.3488 72.5488 28.1391 67.751C27.6954 65.9917 27.0774 63.1338 26.0106 61.9343C24.6156 60.3667 22.2441 60.117 20.0674 60.723L20.1383 59.5088C18.1491 63.9298 22.0184 78.7878 24.0605 79.5643C25.7144 79.6597 27.2185 79.1433 28.7458 78.9813C29.8821 78.8607 32.72 78.6073 33.3639 78.0297Z" fill="white"/>
<path fill-rule="evenodd" clip-rule="evenodd" d="M3.45041 32.4226L11.1642 24.6979C12.0126 23.8187 12.484 23.3915 13.2066 22.6802C13.9146 21.9835 14.3022 21.5041 15.1386 20.7393C18.5048 17.6617 23.3746 12.3408 26.8439 9.02317C28.3422 7.5902 29.2401 6.44638 30.7539 5.19993C32.843 3.47982 32.8577 3.07732 36.2718 3.10404C36.2314 3.06908 36.1687 3.03588 36.135 3.02114C36.1005 3.00591 36.0356 2.96172 35.9917 2.94524C35.9462 2.92826 35.8896 2.8993 35.8366 2.88357L33.9056 2.77595L33.5508 0.350469L32.8534 0.256836C30.8425 0.573941 29.6865 1.98768 28.3562 3.41266C27.1545 4.6998 26.0197 5.74101 24.4554 7.24763L5.1501 26.6255C4.20306 27.5783 1.97715 29.3157 1.85156 30.8902C1.89056 31.7986 2.20253 32.1106 3.13844 32.4226H3.45041Z" fill="white"/>
<path fill-rule="evenodd" clip-rule="evenodd" d="M36.2472 3.10371L74.0881 10.5272L74.5598 9.33568L74.4546 8.05679C73 7.77577 59.7734 5.06602 53.6607 3.86751C50.281 3.20483 46.7148 2.37187 43.3646 1.79784L35.4959 0.258003C35.0732 0.184845 34.5681 0.0764794 34.1317 0.0240447C32.9102 -0.122772 31.6826 0.444381 31.5078 0.600187L32.4437 1.53613L33.881 2.77537L34.6275 3.09604H35.2515C35.2957 3.11252 35.8754 3.09604 35.8754 3.09604C35.9091 3.11102 36.1874 3.09604 36.2472 3.10371Z" fill="white"/>
<path fill-rule="evenodd" clip-rule="evenodd" d="M1.96478 40.5693C1.24304 41.4705 0.115609 50.1971 1.87087 51.7659C2.71753 52.523 3.84013 52.9532 4.96469 52.3222C6.54811 51.4338 6.12073 48.4884 5.30253 46.1503C4.73625 44.5333 3.11873 41.1586 1.96478 40.5693Z" fill="white"/>
</svg>
