<svg width="100" height="141" viewBox="0 0 100 141" fill="none" xmlns="http://www.w3.org/2000/svg">
<path fill-rule="evenodd" clip-rule="evenodd" d="M18.6973 80.3239C16.8364 80.5017 14.4968 80.3366 12.7237 80.0577C11.3215 79.837 8.33697 79.4622 8.49203 77.7354C8.65657 75.9066 13.724 71.016 14.904 70.572C15.5562 71.832 16.5734 76.7209 18.6973 80.3239ZM72.2725 88.6115C70.9244 90.6315 64.5988 93.6081 62.2892 94.3471C53.5276 97.1501 44.4469 96.5896 36.3698 92.0742C34.5565 91.0607 33.3318 90.0872 31.6614 88.8358C30.6799 88.1002 28.1171 85.7289 27.729 84.846L38.3011 82.6924C40.0914 82.1451 42.2262 81.7251 43.8474 81.2322C45.7548 80.6527 47.5665 80.1069 49.4672 79.5029C51.1356 78.9731 53.009 78.3086 54.7326 77.6854C60.024 75.7711 65.46 73.6877 70.3052 71.4422C73.7666 69.8377 76.9344 68.022 80.2435 66.5421C80.6268 66.0926 82.3389 65.2155 82.908 65.1808C83.2653 64.6849 83.0156 64.8357 83.706 64.6252C83.7397 64.6741 83.7759 64.6939 83.7856 64.7843C83.7959 64.8749 83.8456 64.9031 83.8578 64.9476C84.1512 66.0225 83.8665 67.618 83.693 68.7268C83.1042 72.4869 82.1314 75.4148 80.3307 78.808C78.9254 81.4565 74.4483 87.9204 72.2725 88.6115ZM92.3442 51.7651C91.558 52.5589 89.2655 54.1598 88.047 54.9448C87.9277 55.0217 87.8116 55.0899 87.7005 55.1468C86.4166 47.7094 84.313 45.8224 83.9208 44.2776C86.8216 44.1103 92.0323 43.9656 94.273 46.7712C95.1521 48.3334 93.2099 50.891 92.3442 51.7651ZM83.1312 56.4751C83.4798 57.0991 83.3746 57.213 83.4553 58.1388C82.0276 59.2472 79.9249 60.2766 77.9961 61.4297C72.3541 64.802 60.4859 69.8946 53.8377 72.2772C50.1164 73.6107 35.9031 77.6016 33.3799 77.9715C32.4713 78.2256 29.6361 78.9075 28.7343 78.9811C27.5377 79.0787 25.7028 79.6592 24.0489 79.5641C22.0069 78.7875 18.1375 63.9296 20.1265 59.5086C20.1732 56.8794 22.3962 50.2172 23.7088 48.739C24.0207 47.4027 24.169 46.5036 23.3333 45.4556C22.6469 44.5949 21.3627 44.1797 20.1195 44.6738C18.4973 45.318 17.6264 48.1443 16.7994 50.1103C14.5457 55.4679 14.5634 58.2256 14.0371 64.2444C13.1011 64.8683 12.7891 65.1803 11.7974 65.8776C10.7672 66.7196 9.25582 67.7853 8.38915 68.7795C6.92473 70.4597 2.28102 74.2445 2.91923 78.8862C3.40212 82.3963 6.11599 84.1037 9.3924 85.0502C13.8661 86.3429 17.8434 85.4305 21.0396 85.645C21.977 87.0837 23.4619 88.8565 24.5253 90.0737L26.5762 92.0895C27.2199 92.6353 28.0504 93.2513 28.7513 93.7886C42.6939 104.475 62.3711 104.374 75.3149 93.5594L77.4907 91.6657C84.9329 84.9773 89.3507 74.9353 89.685 64.6889C89.7275 63.3875 89.4773 62.0522 89.5712 60.8207C89.8545 60.0896 101.504 53.0182 99.8344 45.9116C98.4084 39.8401 88.9124 39.3179 83.6985 39.703C82.3609 39.8019 82.0489 39.9099 81.1129 40.2219C80.177 38.9739 78.286 37.0731 76.9761 35.7842C75.7324 34.5605 73.696 33.1048 72.1344 32.0818C70.2338 30.8369 68.3636 29.3887 66.3893 31.4963C65.6255 32.3115 65.5494 33.8354 66.1117 34.8414C66.5356 35.5999 67.7656 36.0319 68.6577 36.5767C72.2413 38.7645 75.1654 41.6072 77.6855 44.8506C79.8251 47.6042 82.2932 52.2901 83.1314 56.4759L83.1312 56.4751Z" fill="#31302F"/>
<path fill-rule="evenodd" clip-rule="evenodd" d="M3.29351 32.6042C2.71248 33.0424 0.295498 35.3081 0.0877576 36.0637C-0.530222 38.3106 2.2588 38.1893 3.96817 38.5585C7.41812 39.3036 11.6848 40.2816 15.093 40.7311C15.4489 40.3715 15.341 40.4564 15.6603 40.0017C17.4831 37.4085 17.5777 37.5158 19.4084 35.206L24.2963 30.5243C32.8499 23.934 41.6292 20.3989 53.2924 20.9932C62.5274 21.4636 66.4519 23.6869 68.8877 24.8284C69.5717 24.3109 71.9192 21.5895 72.7669 20.763L78.7449 14.728C79.2623 14.1707 79.3987 13.2485 79.2431 12.7676C78.8393 11.5197 77.6832 11.5197 74.094 10.5282L36.2519 3.10476C32.8377 3.07779 32.8229 3.48054 30.7338 5.20064C29.2199 6.44709 28.3223 7.59091 26.8237 9.02388C23.3545 12.3415 18.4843 17.6624 15.118 20.74C14.2816 21.5048 13.894 21.9842 13.1859 22.6808C12.4633 23.3922 11.9919 23.8194 11.1435 24.6986L3.29351 32.605V32.6042Z" fill="#2B2A29"/>
<path fill-rule="evenodd" clip-rule="evenodd" d="M20.1334 59.5091L20.0625 60.7234C22.2393 60.1174 24.6108 60.3671 26.0058 61.9346C27.0728 63.1341 27.6907 65.992 28.1344 67.7513C29.3442 72.5491 29.0738 72.3124 31.0595 76.6133C31.7532 78.1149 31.4056 78.4208 33.3594 78.03C35.9759 78.1421 50.1233 73.6113 53.8446 72.2777C60.4928 69.8954 72.361 64.8028 78.003 61.4302C79.9318 60.2769 82.0345 59.2477 83.4622 58.1393C83.3815 57.2135 83.4866 57.0996 83.1381 56.4757C83.0135 57.0789 83.2996 56.6884 82.8984 56.9888C81.5341 56.4357 80.6659 55.4919 78.9358 55.0297C74.6839 53.8936 69.6132 56.6477 66.3782 58.9543C59.6763 63.7329 51.3185 70.9626 42.4875 64.1743C37.28 60.1715 36.5337 54.7723 32.3657 51.4916C30.4593 49.991 27.2206 48.2719 23.7157 48.7393C22.4031 50.2175 20.1801 56.8797 20.1334 59.5089V59.5091Z" fill="#36AADC"/>
<path fill-rule="evenodd" clip-rule="evenodd" d="M38.3064 82.6932L27.7344 84.8468C28.1226 85.7297 30.6852 88.101 31.6667 88.8366C33.3371 90.0877 34.5619 91.0613 36.3751 92.075C44.4523 96.5904 53.533 97.1509 62.2945 94.3479C64.6041 93.6089 70.9298 90.6326 72.2778 88.6123C71.8254 88.8338 71.9497 88.8213 71.4494 88.8133C69.6062 83.5796 62.7757 79.5546 56.5682 81.5302C53.6333 82.4643 51.1891 83.9809 48.114 84.7137C44.3507 85.6106 41.4982 84.0318 38.3729 83.3521L38.3067 82.6932H38.3064Z" fill="#107DB4"/>
<path fill-rule="evenodd" clip-rule="evenodd" d="M80.2471 66.5419C76.938 68.0218 73.7705 69.8372 70.3088 71.442C65.4636 73.6874 60.0276 75.7709 54.7362 77.6852C53.0128 78.3084 51.1394 78.9729 49.4708 79.5027C47.5701 80.1067 45.7584 80.6525 43.851 81.232C42.2298 81.7249 40.0947 82.1449 38.3047 82.6922L38.3709 83.3511C41.4962 84.0308 44.3487 85.6093 48.112 84.7127C51.1871 83.9799 53.6313 82.4633 56.5662 81.5292C62.7737 79.5534 69.6042 83.5786 71.4474 88.8123C71.9477 88.8203 71.8234 88.8328 72.2758 88.6113C74.4516 87.9202 78.9288 81.456 80.334 78.8078C82.1348 75.4145 83.1076 72.4867 83.6963 68.7266C83.8699 67.6178 84.1545 66.0223 83.8611 64.9474C83.8489 64.9029 83.7992 64.8747 83.789 64.7841C83.779 64.6937 83.743 64.6739 83.7093 64.625C83.0189 64.8355 83.2686 64.6847 82.9113 65.1806C82.3423 65.2153 80.6302 66.0922 80.2469 66.5419H80.2471Z" fill="#36AADC"/>
<path fill-rule="evenodd" clip-rule="evenodd" d="M63.0992 31.2976C63.5511 30.4454 63.3803 29.1922 62.7936 28.3982C62.2535 27.6671 61.4745 27.3894 60.3886 27.1457C50.0932 24.8329 40.0657 26.8688 31.355 32.2841C29.8027 33.2489 24.3111 37.5315 23.6966 39.0859C22.8649 41.1892 24.4272 43.2796 26.4898 43.1333C27.6214 43.0534 28.202 42.2362 28.7375 41.6824C34.4257 35.7977 42.6479 32.0317 51.3384 31.8714C58.7209 31.735 61.4013 34.4998 63.0992 31.2976Z" fill="#2B2A29"/>
<path fill-rule="evenodd" clip-rule="evenodd" d="M33.3565 78.0297C31.4027 78.4205 31.7503 78.1143 31.0566 76.613C29.0706 72.3121 29.3413 72.5488 28.1315 67.751C27.6878 65.9917 27.0699 63.1338 26.0029 61.9343C24.6079 60.3667 22.2364 60.117 20.0596 60.723L20.1305 59.5088C18.1412 63.9298 22.0107 78.7877 24.0529 79.5643C25.7068 79.6597 27.2109 79.1433 28.7383 78.9812C29.8746 78.8607 32.7126 78.6072 33.3565 78.0297Z" fill="#107DB4"/>
<path fill-rule="evenodd" clip-rule="evenodd" d="M3.43484 32.4225L11.1488 24.6979C11.9973 23.8187 12.4687 23.3915 13.1913 22.6801C13.8994 21.9835 14.2869 21.5041 15.1234 20.7393C18.4897 17.6616 23.3596 12.3408 26.829 9.02315C28.3274 7.59019 29.2253 6.44637 30.7391 5.19992C32.8283 3.47982 32.843 3.07732 36.2573 3.10403C36.2168 3.06908 36.1541 3.03587 36.1204 3.02114C36.086 3.00591 36.0211 2.96171 35.9771 2.94523C35.9317 2.92825 35.875 2.89929 35.8221 2.88356L33.891 2.77594L33.5362 0.350469L32.8388 0.256836C30.8278 0.57394 29.6717 1.98768 28.3414 3.41265C27.1396 4.69979 26.0048 5.741 24.4405 7.24762L5.13457 26.6255C4.1875 27.5783 1.96153 29.3156 1.83594 30.8901C1.87494 31.7986 2.18692 32.1106 3.12286 32.4225H3.43484Z" fill="#107DB4"/>
<path fill-rule="evenodd" clip-rule="evenodd" d="M36.2473 3.1037L74.0894 10.5272L74.5612 9.33566L74.4559 8.05678C73.0013 7.77576 59.7743 5.06601 53.6614 3.8675C50.2816 3.20483 46.7153 2.37187 43.365 1.79783L35.496 0.258003C35.0733 0.184844 34.5682 0.0764793 34.1317 0.0240447C32.9103 -0.122772 31.6826 0.44438 31.5078 0.600186L32.4438 1.53613L33.881 2.77536L34.6276 3.09603H35.2516C35.2958 3.11251 35.8755 3.09603 35.8755 3.09603C35.9093 3.11101 36.1875 3.09603 36.2473 3.1037Z" fill="#36AADC"/>
<path fill-rule="evenodd" clip-rule="evenodd" d="M1.96481 40.5684C1.24305 41.4696 0.115584 50.1961 1.87089 51.7649C2.71759 52.522 3.84022 52.9522 4.96482 52.3212C6.54828 51.4328 6.12089 48.4874 5.30266 46.1493C4.73637 44.5323 3.1188 41.1576 1.96481 40.5684Z" fill="#0E1611"/>
<path d="M8.57611 138.192V139.032H10.7494V140.401H7.14062V134.694H10.7094V136.055H8.57603V136.846H10.5088V138.192H8.57611ZM16.4305 134.693H18.716C19.4861 134.693 20.1329 134.968 20.6569 135.517C21.1808 136.066 21.4429 136.743 21.4429 137.547C21.4429 138.357 21.1808 139.037 20.6569 139.586C20.1383 140.129 19.4913 140.401 18.716 140.401H16.4305V134.693ZM17.906 138.991H18.716C19.101 138.991 19.419 138.86 19.6704 138.599C19.9163 138.333 20.0392 137.982 20.0392 137.547C20.0392 137.107 19.9163 136.759 19.6704 136.504C19.4245 136.237 19.1063 136.104 18.716 136.104H17.906V138.991ZM27.0275 138.526V134.693H28.4632V138.387C28.4632 138.866 28.7251 139.105 29.2491 139.105C29.773 139.105 30.0349 138.866 30.0349 138.387V134.693H31.4705V138.526C31.4705 139.124 31.262 139.608 30.845 139.977C30.4385 140.341 29.9067 140.524 29.2491 140.524C28.5914 140.524 28.0568 140.341 27.6451 139.977C27.2333 139.608 27.0275 139.124 27.0275 138.526ZM40.0066 140.524C39.1618 140.524 38.4616 140.241 37.9054 139.676C37.3548 139.11 37.0794 138.401 37.0794 137.547C37.0794 136.694 37.3547 135.987 37.9054 135.427C38.4561 134.857 39.1566 134.571 40.0066 134.571C40.5145 134.571 40.985 134.693 41.4181 134.938C41.8511 135.183 42.1906 135.512 42.4366 135.925L41.1935 136.65C41.0866 136.449 40.9276 136.29 40.7164 136.173C40.5051 136.057 40.2687 135.998 40.0066 135.998C39.5628 135.998 39.1992 136.142 38.9159 136.43C38.6433 136.718 38.5069 137.091 38.5069 137.547C38.5069 138.015 38.6433 138.39 38.9159 138.673C39.1939 138.955 39.5575 139.097 40.0066 139.097C40.2687 139.097 40.5051 139.038 40.7164 138.921C40.9275 138.805 41.0865 138.643 41.1935 138.436L42.4366 139.17C42.1906 139.589 41.8524 139.919 41.4221 140.161C40.9917 140.403 40.5198 140.524 40.0066 140.524ZM52.9214 140.401H51.3736L51.133 139.578H49.2643L49.0237 140.401H47.4678L49.3205 134.694H51.0687L51.995 137.547L52.9214 140.401ZM50.1947 136.382L49.6333 138.322H50.7641L50.1947 136.382ZM57.5678 134.694H61.7782V136.104H60.3908V140.401H58.9553V136.104H57.5678V134.694ZM67.2989 140.401V134.694H68.7344V140.401H67.2989ZM79.4276 139.667C78.8556 140.238 78.1605 140.524 77.3426 140.524C76.5139 140.524 75.816 140.238 75.2495 139.667C74.6827 139.091 74.3993 138.385 74.3993 137.548C74.3993 136.71 74.6827 136.006 75.2495 135.436C75.8161 134.859 76.514 134.571 77.3426 134.571C78.1659 134.571 78.861 134.859 79.4276 135.436C79.9997 136.006 80.2858 136.71 80.2858 137.548C80.2858 138.379 79.9997 139.086 79.4276 139.667ZM76.2598 138.665C76.5539 138.953 76.9149 139.097 77.3426 139.097C77.7703 139.097 78.1311 138.953 78.4253 138.665C78.714 138.371 78.8583 137.999 78.8583 137.548C78.8583 137.091 78.714 136.721 78.4253 136.439C78.1366 136.145 77.7757 135.998 77.3426 135.998C76.9095 135.998 76.5487 136.145 76.2598 136.439C75.9712 136.721 75.8269 137.091 75.8269 137.548C75.8269 137.999 75.9712 138.371 76.2598 138.665ZM89.0463 137.564V134.694H90.474V140.401H89.3671L87.3863 137.531V140.401H85.9508V134.694H87.0655L89.0463 137.564Z" fill="black"/>
<path d="M5.71872 130.524C4.26576 130.524 3.04942 130.219 2.0695 129.609C1.08967 128.999 0.399839 128.15 0 127.062L3.05918 125.291C3.57912 126.525 4.49899 127.142 5.8187 127.142C6.91195 127.142 7.45839 126.83 7.45839 126.207C7.45839 125.809 7.14509 125.477 6.5185 125.212C6.30518 125.132 5.71862 124.953 4.75891 124.675C3.39926 124.29 2.36606 123.753 1.6596 123.063C0.953038 122.373 0.599711 121.458 0.599711 120.318C0.599711 119.031 1.0597 117.99 1.97947 117.194C2.92603 116.398 4.08571 116 5.4587 116C6.63182 116 7.6717 116.275 8.57813 116.826C9.48466 117.376 10.1778 118.162 10.6578 119.184L7.65826 120.934C7.21829 119.9 6.4919 119.382 5.47882 119.382C5.06554 119.382 4.74566 119.465 4.51891 119.631C4.29235 119.797 4.17912 120.019 4.17912 120.298C4.17912 120.603 4.34234 120.861 4.66898 121.073C4.99553 121.286 5.63208 121.531 6.57854 121.81C7.2851 122.022 7.83163 122.208 8.21822 122.367C8.65819 122.552 9.11131 122.805 9.57797 123.123C10.551 123.759 11.0377 124.774 11.0377 126.167C11.0377 127.533 10.551 128.601 9.57797 129.37C8.60482 130.139 7.31837 130.524 5.71862 130.524H5.71872ZM11.1376 116.299H21.6356V119.74H18.1763V130.225H14.597V119.74H11.1377V116.299H11.1376ZM34.333 130.225H30.4739L29.8739 128.216H25.2148L24.615 130.225H20.7358L25.3549 116.299H29.714L34.333 130.225ZM27.5344 120.417L26.1347 125.152H28.9542L27.5344 120.417ZM43.0714 123.302V116.299H46.6306V130.225H43.8711L38.9321 123.222V130.225H35.3529V116.299H38.1323L43.0715 123.302H43.0714ZM57.4485 116.299V119.74H52.4294V122.008H57.3485V125.45H52.4294V130.225H48.8501V116.298H57.4486L57.4485 116.299ZM71.3057 128.435C69.8792 129.828 68.1464 130.524 66.1067 130.524C64.0405 130.524 62.3007 129.828 60.8877 128.435C59.4747 127.029 58.7682 125.305 58.7682 123.262C58.7682 121.219 59.4747 119.502 60.8877 118.109C62.3007 116.703 64.0405 116 66.1067 116C68.1596 116 69.8926 116.703 71.3057 118.109C72.732 119.502 73.4452 121.219 73.4452 123.262C73.4452 125.291 72.732 127.016 71.3057 128.435ZM63.4072 125.988C64.1403 126.691 65.0403 127.042 66.1067 127.042C67.1732 127.042 68.073 126.691 68.8061 125.988C69.5258 125.271 69.8859 124.363 69.8859 123.262C69.8859 122.148 69.5259 121.246 68.8061 120.556C68.0864 119.84 67.1865 119.482 66.1067 119.482C65.0269 119.482 64.1271 119.84 63.4072 120.556C62.6875 121.246 62.3274 122.148 62.3274 123.262C62.3274 124.363 62.6874 125.271 63.4072 125.988ZM86.2426 130.225H82.4034L79.9638 125.729H78.6841V130.225H75.1048V116.299H80.7038C82.1301 116.299 83.3234 116.756 84.2831 117.671C85.2562 118.56 85.7428 119.707 85.7428 121.113C85.7428 121.936 85.5295 122.698 85.103 123.401C84.6764 124.104 84.0964 124.661 83.3632 125.072L86.2427 130.225L86.2426 130.225ZM80.6638 119.581H78.6841V122.705H80.6638C81.1038 122.718 81.4635 122.579 81.7436 122.287C82.0235 121.995 82.1634 121.617 82.1634 121.153C82.1634 120.689 82.0235 120.311 81.7436 120.019C81.4635 119.727 81.1038 119.581 80.6638 119.581ZM87.5023 116.299H93.2013C95.1208 116.299 96.7339 116.968 98.0403 118.308C99.3467 119.648 100 121.299 100 123.262C100 125.238 99.3467 126.896 98.0403 128.236C96.7473 129.562 95.1342 130.225 93.2013 130.225H87.5023V116.299ZM91.1817 126.784H93.2012C94.161 126.784 94.9541 126.465 95.5808 125.829C96.1939 125.179 96.5006 124.323 96.5006 123.262C96.5006 122.188 96.1939 121.339 95.5808 120.715C94.9674 120.065 94.1744 119.74 93.2012 119.74H91.1817V126.783V126.784Z" fill="black"/>
</svg>
